<svg xmlns="http://www.w3.org/2000/svg" width="240" height="240" viewBox="0 0 240 240">
  <defs>
    <clipPath id="coinClip"><circle cx="120" cy="120" r="92"></circle></clipPath>
  </defs>
  <circle cx="120" cy="120" r="117" fill="#14283a"></circle>
  <circle cx="120" cy="120" r="113" fill="#f8f1e3"></circle>
  <circle cx="120" cy="120" r="104" fill="none" stroke="#f2bb45" stroke-width="13" stroke-dasharray="10 7" stroke-linecap="round"></circle>
  <circle cx="120" cy="120" r="95" fill="#eaf4f1"></circle>
  <g clip-path="url(#coinClip)">
    <path d="M52,214 Q56,170 98,162 L142,162 Q184,170 188,214 Z" fill="#1f3a52"></path>
    <path d="M98,162 L120,190 L142,162 Z" fill="#19a89b"></path>
    <rect x="106" y="146" width="28" height="26" rx="10" fill="#e0ac7e"></rect>
    <rect x="84" y="66" width="72" height="84" rx="32" fill="#efc69b"></rect>
    <circle cx="84" cy="114" r="9" fill="#efc69b"></circle>
    <circle cx="156" cy="114" r="9" fill="#efc69b"></circle>
    <path d="M82,104 C80,144 92,166 120,170 C148,166 160,144 158,104 C158,130 150,136 120,136 C90,136 82,130 82,104 Z" fill="#8a5a3a"></path>
    <path d="M120,116 q7,9 0,16 q-7,1 -7,-6 Z" fill="#e0ac7e"></path>
    <circle cx="104" cy="106" r="4.6" fill="#14283a"></circle>
    <rect x="96" y="94" width="18" height="5" rx="2.5" fill="#14283a"></rect>
    <ellipse cx="140" cy="106" rx="12" ry="10" fill="#14283a"></ellipse>
    <path d="M128,98 Q150,86 172,92" fill="none" stroke="#14283a" stroke-width="5" stroke-linecap="round"></path>
    <path d="M60,92 C56,62 96,58 102,63 C110,44 130,44 138,63 C144,58 184,62 180,92 C156,75 134,77 120,77 C106,77 84,75 60,92 Z" fill="#14283a"></path>
    <path d="M60,92 C84,75 106,77 120,77 C134,77 156,75 180,92" fill="none" stroke="#f2bb45" stroke-width="4" stroke-linecap="round"></path>
    <circle cx="120" cy="72" r="7" fill="#f8f1e3"></circle>
    <circle cx="117" cy="71" r="1.5" fill="#14283a"></circle>
    <circle cx="123" cy="71" r="1.5" fill="#14283a"></circle>
    <rect x="113" y="79" width="14" height="3" rx="1.5" fill="#f8f1e3" transform="rotate(20 120 80)"></rect>
    <rect x="113" y="79" width="14" height="3" rx="1.5" fill="#f8f1e3" transform="rotate(-20 120 80)"></rect>
    <path d="M96,176 q-18,-14 -28,-34" fill="none" stroke="#7a4a2c" stroke-width="11" stroke-linecap="round"></path>
    <circle cx="66" cy="126" r="26" fill="#57c9bd" fill-opacity="0.32"></circle>
    <circle cx="66" cy="126" r="26" fill="none" stroke="#f2bb45" stroke-width="9"></circle>
    <rect x="60" y="120" width="14" height="4" rx="2" fill="#e9664d" transform="rotate(45 67 122)"></rect>
    <rect x="60" y="120" width="14" height="4" rx="2" fill="#e9664d" transform="rotate(-45 67 122)"></rect>
    <circle cx="98" cy="178" r="12" fill="#efc69b"></circle>
  </g>
</svg>